<svg width="40" height="40" viewBox="0 0 40 40" fill="none" xmlns="http://www.w3.org/2000/svg">
<mask id="path-1-inside-1_12662_2716" fill="white">
<path d="M0 8C0 3.58172 3.58172 0 8 0H32C36.4183 0 40 3.58172 40 8V32C40 36.4183 36.4183 40 32 40H8C3.58172 40 0 36.4183 0 32V8Z"/>
</mask>
<path d="M0 8C0 3.58172 3.58172 0 8 0H32C36.4183 0 40 3.58172 40 8V32C40 36.4183 36.4183 40 32 40H8C3.58172 40 0 36.4183 0 32V8Z" fill="#FAFAFA"/>
<path d="M8 0V1H32V0V-1H8V0ZM40 8H39V32H40H41V8H40ZM32 40V39H8V40V41H32V40ZM0 32H1V8H0H-1V32H0ZM8 40V39C4.13401 39 1 35.866 1 32H0H-1C-1 36.9706 3.02944 41 8 41V40ZM40 32H39C39 35.866 35.866 39 32 39V40V41C36.9706 41 41 36.9706 41 32H40ZM32 0V1C35.866 1 39 4.13401 39 8H40H41C41 3.02944 36.9706 -1 32 -1V0ZM8 0V-1C3.02944 -1 -1 3.02944 -1 8H0H1C1 4.13401 4.13401 1 8 1V0Z" fill="#DADADA" mask="url(#path-1-inside-1_12662_2716)"/>
<g clip-path="url(#clip0_12662_2716)">
<path d="M26.6481 28.3854C27.0125 28.3855 27.3079 28.6807 27.3079 29.0452C27.3077 29.4095 27.0124 29.7049 26.6481 29.7049H14.204C13.8396 29.7049 13.5443 29.4095 13.5442 29.0452C13.5442 28.6807 13.8395 28.3854 14.204 28.3854H26.6481Z" fill="#282E37"/>
<path fill-rule="evenodd" clip-rule="evenodd" d="M20.402 10.301C20.546 10.301 20.6903 10.3065 20.8403 10.3245C22.484 10.5285 23.792 11.9207 23.8942 13.5764C23.9362 14.2663 23.7794 14.9204 23.4735 15.4784C22.9695 16.3784 22.6461 17.369 22.6461 18.401C22.6462 20.003 23.9482 21.2991 25.5442 21.2991H26.054C27.158 21.2991 28.052 22.1931 28.052 23.2971V26.0452H12.8V23.2971C12.8 22.1931 13.6941 21.2991 14.7981 21.2991H15.2481C16.85 21.299 18.1461 19.9969 18.1461 18.401V18.1784C18.146 17.2546 17.8465 16.3664 17.3786 15.5686C17.0726 15.0467 16.8981 14.447 16.8981 13.7991C16.8981 11.8611 18.4641 10.2952 20.3961 10.2952L20.402 10.301ZM20.3903 11.6088C19.1903 11.6088 18.2118 12.5872 18.2118 13.7932C18.2118 14.1831 18.3138 14.5612 18.5118 14.8971C19.1476 15.9769 19.4656 17.0806 19.4657 18.1784V18.401C19.4656 20.7289 17.57 22.6186 15.2481 22.6186H14.7981C14.4261 22.6186 14.1196 22.9251 14.1196 23.2971V24.7245H26.7325V23.2971C26.7325 22.9251 26.426 22.6186 26.054 22.6186H25.5442C23.2162 22.6186 21.3255 20.723 21.3254 18.401C21.3254 17.2252 21.6619 16.0252 22.3157 14.8374C22.5076 14.4834 22.5975 14.081 22.5735 13.6491C22.5075 12.6291 21.6915 11.7594 20.6715 11.6334C20.6268 11.6245 20.5807 11.6193 20.5344 11.617L20.3903 11.6088Z" fill="#282E37"/>
</g>
<defs>
<clipPath id="clip0_12662_2716">
<rect width="24" height="24" fill="white" transform="translate(8 8)"/>
</clipPath>
</defs>
</svg>
