<svg width="40" height="40" viewBox="0 0 40 40" fill="none" xmlns="http://www.w3.org/2000/svg">
<mask id="path-1-inside-1_12667_7057" fill="white">
<path d="M0 8C0 3.58172 3.58172 0 8 0H32C36.4183 0 40 3.58172 40 8V32C40 36.4183 36.4183 40 32 40H8C3.58172 40 0 36.4183 0 32V8Z"/>
</mask>
<path d="M0 8C0 3.58172 3.58172 0 8 0H32C36.4183 0 40 3.58172 40 8V32C40 36.4183 36.4183 40 32 40H8C3.58172 40 0 36.4183 0 32V8Z" fill="#F9F9FC"/>
<path d="M8 0V1H32V0V-1H8V0ZM40 8H39V32H40H41V8H40ZM32 40V39H8V40V41H32V40ZM0 32H1V8H0H-1V32H0ZM8 40V39C4.13401 39 1 35.866 1 32H0H-1C-1 36.9706 3.02944 41 8 41V40ZM40 32H39C39 35.866 35.866 39 32 39V40V41C36.9706 41 41 36.9706 41 32H40ZM32 0V1C35.866 1 39 4.13401 39 8H40H41C41 3.02944 36.9706 -1 32 -1V0ZM8 0V-1C3.02944 -1 -1 3.02944 -1 8H0H1C1 4.13401 4.13401 1 8 1V0Z" fill="#E2E2E5" mask="url(#path-1-inside-1_12667_7057)"/>
<path fill-rule="evenodd" clip-rule="evenodd" d="M17.9917 16.25C17.9917 15.1409 18.8909 14.2417 20 14.2417C21.1092 14.2417 22.0084 15.1409 22.0084 16.25C22.0084 17.3592 21.1092 18.2584 20 18.2584C18.8909 18.2584 17.9917 17.3592 17.9917 16.25ZM20 15.3417C19.4984 15.3417 19.0917 15.7484 19.0917 16.25C19.0917 16.7517 19.4984 17.1584 20 17.1584C20.5017 17.1584 20.9084 16.7517 20.9084 16.25C20.9084 15.7484 20.5017 15.3417 20 15.3417Z" fill="#1C4EE4"/>
<path fill-rule="evenodd" clip-rule="evenodd" d="M11.1167 18.125C11.1167 17.0159 12.0159 16.1167 13.125 16.1167C14.2342 16.1167 15.1334 17.0159 15.1334 18.125C15.1334 19.2342 14.2342 20.1334 13.125 20.1334C12.0159 20.1334 11.1167 19.2342 11.1167 18.125ZM13.125 17.2167C12.6234 17.2167 12.2167 17.6234 12.2167 18.125C12.2167 18.6267 12.6234 19.0334 13.125 19.0334C13.6267 19.0334 14.0334 18.6267 14.0334 18.125C14.0334 17.6234 13.6267 17.2167 13.125 17.2167Z" fill="#1C4EE4"/>
<path fill-rule="evenodd" clip-rule="evenodd" d="M26.875 16.1167C25.7659 16.1167 24.8667 17.0159 24.8667 18.125C24.8667 19.2342 25.7659 20.1334 26.875 20.1334C27.9842 20.1334 28.8834 19.2342 28.8834 18.125C28.8834 17.0159 27.9842 16.1167 26.875 16.1167ZM25.9667 18.125C25.9667 17.6234 26.3734 17.2167 26.875 17.2167C27.3767 17.2167 27.7834 17.6234 27.7834 18.125C27.7834 18.6267 27.3767 19.0334 26.875 19.0334C26.3734 19.0334 25.9667 18.6267 25.9667 18.125Z" fill="#1C4EE4"/>
<path fill-rule="evenodd" clip-rule="evenodd" d="M19.1665 18.825C17.7128 18.825 16.5332 20.0045 16.5332 21.4583V24.7827C16.0658 24.4706 15.7584 23.9383 15.7584 23.3333C15.7584 21.8795 14.5788 20.7 13.125 20.7H12.9167C11.9213 20.7 11.1167 21.5045 11.1167 22.5V26.175H28.8833V22.5C28.8833 21.5045 28.0788 20.7 27.0833 20.7H26.875C25.4212 20.7 24.2417 21.8795 24.2417 23.3333C24.2417 23.9384 23.9341 24.4708 23.4665 24.7829V21.4583C23.4665 20.0045 22.287 18.825 20.8332 18.825H19.1665ZM19.1665 19.925C18.3203 19.925 17.6332 20.612 17.6332 21.4583V25.075H22.3665V21.4583C22.3665 20.612 21.6794 19.925 20.8332 19.925H20.55V22.0833C20.55 22.387 20.3037 22.6333 20 22.6333C19.6962 22.6333 19.45 22.387 19.45 22.0833V19.925H19.1665ZM12.2167 22.5C12.2167 22.112 12.5288 21.8 12.9167 21.8H13.125C13.9713 21.8 14.6584 22.487 14.6584 23.3333C14.6584 23.9898 14.8805 24.594 15.2539 25.075H12.2167V22.5ZM24.7462 25.075H27.7833V22.5C27.7833 22.112 27.4712 21.8 27.0833 21.8H26.875C26.0288 21.8 25.3417 22.487 25.3417 23.3333C25.3417 23.9898 25.1195 24.594 24.7462 25.075Z" fill="#1C4EE4"/>
</svg>
