<svg width="40" height="40" viewBox="0 0 40 40" fill="none" xmlns="http://www.w3.org/2000/svg">
<mask id="path-1-inside-1_12667_6977" fill="white">
<path d="M0 8C0 3.58172 3.58172 0 8 0H32C36.4183 0 40 3.58172 40 8V32C40 36.4183 36.4183 40 32 40H8C3.58172 40 0 36.4183 0 32V8Z"/>
</mask>
<path d="M0 8C0 3.58172 3.58172 0 8 0H32C36.4183 0 40 3.58172 40 8V32C40 36.4183 36.4183 40 32 40H8C3.58172 40 0 36.4183 0 32V8Z" fill="#F9F9FC"/>
<path d="M8 0V1H32V0V-1H8V0ZM40 8H39V32H40H41V8H40ZM32 40V39H8V40V41H32V40ZM0 32H1V8H0H-1V32H0ZM8 40V39C4.13401 39 1 35.866 1 32H0H-1C-1 36.9706 3.02944 41 8 41V40ZM40 32H39C39 35.866 35.866 39 32 39V40V41C36.9706 41 41 36.9706 41 32H40ZM32 0V1C35.866 1 39 4.13401 39 8H40H41C41 3.02944 36.9706 -1 32 -1V0ZM8 0V-1C3.02944 -1 -1 3.02944 -1 8H0H1C1 4.13401 4.13401 1 8 1V0Z" fill="#E2E2E5" mask="url(#path-1-inside-1_12667_6977)"/>
<path d="M16.2082 21.7917V20.7084H23.7915V21.7917H16.2082ZM16.2082 24.7917V23.7084H21.7915V24.7917H16.2082ZM13.4165 27.5833V14.4167H16.5768V12.3206H17.6921V14.4167H22.3395V12.3206H23.4229V14.4167H26.5831V27.5833H13.4165ZM14.4998 26.5H25.4998V19.2565H14.4998V26.5ZM14.4998 18.1731H25.4998V15.5H14.4998V18.1731Z" fill="#1C4EE4"/>
</svg>
