<svg width="40" height="40" viewBox="0 0 40 40" fill="none" xmlns="http://www.w3.org/2000/svg">
<mask id="path-1-inside-1_12667_6998" fill="white">
<path d="M0 8C0 3.58172 3.58172 0 8 0H32C36.4183 0 40 3.58172 40 8V32C40 36.4183 36.4183 40 32 40H8C3.58172 40 0 36.4183 0 32V8Z"/>
</mask>
<path d="M0 8C0 3.58172 3.58172 0 8 0H32C36.4183 0 40 3.58172 40 8V32C40 36.4183 36.4183 40 32 40H8C3.58172 40 0 36.4183 0 32V8Z" fill="#F9F9FC"/>
<path d="M8 0V1H32V0V-1H8V0ZM40 8H39V32H40H41V8H40ZM32 40V39H8V40V41H32V40ZM0 32H1V8H0H-1V32H0ZM8 40V39C4.13401 39 1 35.866 1 32H0H-1C-1 36.9706 3.02944 41 8 41V40ZM40 32H39C39 35.866 35.866 39 32 39V40V41C36.9706 41 41 36.9706 41 32H40ZM32 0V1C35.866 1 39 4.13401 39 8H40H41C41 3.02944 36.9706 -1 32 -1V0ZM8 0V-1C3.02944 -1 -1 3.02944 -1 8H0H1C1 4.13401 4.13401 1 8 1V0Z" fill="#E2E2E5" mask="url(#path-1-inside-1_12667_6998)"/>
<path d="M16.096 28.3323C15.6259 28.3323 15.2285 28.172 14.9037 27.8515C14.5789 27.531 14.4165 27.1453 14.4165 26.6945V15.422C14.4165 14.9979 14.5613 14.6315 14.8508 14.3227C15.1403 14.0139 15.4972 13.8163 15.9213 13.7298L22.8395 12.2281V24.6929L16.0345 26.1827C15.9013 26.214 15.7789 26.2758 15.6673 26.3679C15.5556 26.4601 15.4998 26.5689 15.4998 26.6945C15.4998 26.8654 15.5592 27.0006 15.6779 27.0999C15.7966 27.1993 15.9359 27.249 16.096 27.249H24.4904V14.6656H25.5831V28.3323H16.096ZM17.7434 24.6897L21.7563 23.7794V13.5775L17.7434 14.4509V24.6897ZM16.6601 24.9221V14.7041L16.011 14.8371C15.8625 14.8756 15.7402 14.9469 15.644 15.051C15.5479 15.1552 15.4998 15.2789 15.4998 15.422V25.2522C15.5853 25.2084 15.6729 25.1742 15.7626 25.1496C15.8524 25.1251 15.9427 25.0962 16.0335 25.0631L16.6601 24.9221Z" fill="#1C4EE4"/>
</svg>
