<svg width="40" height="40" viewBox="0 0 40 40" fill="none" xmlns="http://www.w3.org/2000/svg">
<mask id="path-1-inside-1_12662_2723" fill="white">
<path d="M0 8C0 3.58172 3.58172 0 8 0H32C36.4183 0 40 3.58172 40 8V32C40 36.4183 36.4183 40 32 40H8C3.58172 40 0 36.4183 0 32V8Z"/>
</mask>
<path d="M0 8C0 3.58172 3.58172 0 8 0H32C36.4183 0 40 3.58172 40 8V32C40 36.4183 36.4183 40 32 40H8C3.58172 40 0 36.4183 0 32V8Z" fill="#FAFAFA"/>
<path d="M8 0V1H32V0V-1H8V0ZM40 8H39V32H40H41V8H40ZM32 40V39H8V40V41H32V40ZM0 32H1V8H0H-1V32H0ZM8 40V39C4.13401 39 1 35.866 1 32H0H-1C-1 36.9706 3.02944 41 8 41V40ZM40 32H39C39 35.866 35.866 39 32 39V40V41C36.9706 41 41 36.9706 41 32H40ZM32 0V1C35.866 1 39 4.13401 39 8H40H41C41 3.02944 36.9706 -1 32 -1V0ZM8 0V-1C3.02944 -1 -1 3.02944 -1 8H0H1C1 4.13401 4.13401 1 8 1V0Z" fill="#DADADA" mask="url(#path-1-inside-1_12662_2723)"/>
<g clip-path="url(#clip0_12662_2723)">
<path d="M13.4187 28.8932V12.0645H22.0545L26.7045 16.7145V28.8932H13.4187ZM21.3902 17.3788V13.393H14.7473V27.5646H25.376V17.3788H21.3902Z" fill="#282E37"/>
<path d="M16.104 26.5604V25.2318H21.141V26.5604H16.104ZM16.104 23.6093V22.2807H24.0193V23.6093H16.104ZM16.104 20.4157V19.0871H24.0193V20.4157H16.104Z" fill="#282E37"/>
<path d="M19.1529 18.3968L18.8535 17.9691C18.7324 18.019 18.6054 18.06 18.4727 18.0921C18.34 18.1241 18.2039 18.1402 18.0645 18.1402C17.497 18.1402 17.0144 17.9406 16.6168 17.5416C16.2192 17.1425 16.0204 16.6597 16.0204 16.0933C16.0204 15.5264 16.2154 15.0451 16.6053 14.6495C16.9952 14.254 17.4738 14.0562 18.041 14.0562C18.6081 14.0562 19.0866 14.2545 19.4766 14.6511C19.8666 15.0476 20.0616 15.5294 20.0616 16.0964C20.0616 16.3755 20.0101 16.6397 19.9071 16.8888C19.8041 17.138 19.6561 17.3591 19.4629 17.5522L19.7623 17.9905L19.1529 18.3968ZM18.041 17.3276C18.098 17.3276 18.1568 17.3259 18.2174 17.3223C18.278 17.3187 18.3368 17.3063 18.3938 17.2849L18.0838 16.8145L18.7039 16.3975L18.9925 16.8465C19.0781 16.7396 19.1386 16.6209 19.1743 16.4903C19.2099 16.3597 19.2277 16.2295 19.2277 16.0999C19.2277 15.7638 19.1148 15.4745 18.8888 15.2322C18.6629 14.9899 18.3803 14.8687 18.041 14.8687C17.7016 14.8687 17.4189 14.9901 17.1931 15.233C16.9672 15.4759 16.8543 15.7645 16.8543 16.099C16.8543 16.4334 16.9666 16.72 17.1911 16.9588C17.4156 17.1976 17.6989 17.3205 18.041 17.3276Z" fill="#282E37"/>
</g>
<defs>
<clipPath id="clip0_12662_2723">
<rect width="24" height="24" fill="white" transform="translate(8 8)"/>
</clipPath>
</defs>
</svg>
